<?xml version="1.0" encoding="utf-8"?>
<!-- Generator: Adobe Illustrator 22.0.0, SVG Export Plug-In . SVG Version: 6.00 Build 0)  -->
<svg version="1.1" id="Capa_1" xmlns="http://www.w3.org/2000/svg" xmlns:xlink="http://www.w3.org/1999/xlink" x="0px" y="0px"
	 viewBox="0 0 510 510" style="enable-background:new 0 0 510 510;" xml:space="preserve">
<style type="text/css">
	.st0{opacity:0.9;fill:#F0DB4F;enable-background:new    ;}
</style>
<g>
	<g id="history">
		<path class="st0" d="M267.8,12.8c-89.3,0-168.3,48.5-209.1,122.4L0,76.5v165.8h165.8l-71.4-71.4c33.2-63.8,96.9-107.1,173.4-107.1
			C372.3,63.8,459,150.4,459,255s-86.7,191.3-191.3,191.3c-84.1,0-153-53.5-181.1-127.5H33.2c28,102,122.4,178.5,234.6,178.5
			C402.9,497.3,510,387.6,510,255S400.4,12.8,267.8,12.8z M229.5,140.3v130l119.9,71.4l20.4-33.1l-102-61.2V140.3H229.5z"/>
	</g>
</g>
</svg>
