<?xml version="1.0" encoding="utf-8"?>
<!-- Generator: Adobe Illustrator 22.0.0, SVG Export Plug-In . SVG Version: 6.00 Build 0)  -->
<svg version="1.1" id="Layer_1" xmlns="http://www.w3.org/2000/svg" xmlns:xlink="http://www.w3.org/1999/xlink" x="0px" y="0px"
	 viewBox="0 0 1200 1200" style="enable-background:new 0 0 1200 1200;" xml:space="preserve">
<style type="text/css">
	.st0{fill:#323330;}
	.st1{fill:#F0DB4F;}
</style>
<g>
	<path class="st0" d="M600.5,1172c-17.4,0-34.7-4.6-49.8-13.3L142,922.7c-30.7-17.7-49.8-50.8-49.8-86.2v-472
		c0-35.4,19.1-68.5,49.8-86.2l408.7-236c15.1-8.7,32.3-13.3,49.8-13.3c17.4,0,34.7,4.6,49.8,13.3l408.7,236
		c30.7,17.7,49.8,50.8,49.8,86.2v472c0,35.4-19.1,68.5-49.8,86.2l-408.7,236C635.2,1167.4,617.9,1172,600.5,1172z"/>
	<path d="M600.5,29.5c17.4,0,34.5,4.6,49.5,13.3l408.7,236c30.5,17.6,49.5,50.5,49.5,85.8v472c0,35.3-19,68.1-49.5,85.8l-408.7,236
		c-15,8.7-32.2,13.3-49.5,13.3s-34.5-4.6-49.5-13.3l-408.7-236c-30.5-17.6-49.5-50.5-49.5-85.8v-472c0-35.3,19-68.1,49.5-85.8
		L551,42.7C566,34.1,583.1,29.5,600.5,29.5 M600.5,28.5c-17.3,0-34.5,4.5-50,13.4l-408.7,236c-31,17.9-50,50.9-50,86.6v472
		c0,35.7,19.1,68.8,50,86.6l408.7,236c15.5,8.9,32.7,13.4,50,13.4s34.5-4.5,50-13.4l408.7-236c31-17.9,50-50.9,50-86.6v-472
		c0-35.7-19.1-68.8-50-86.6l-408.7-236C635,32.9,617.8,28.5,600.5,28.5L600.5,28.5z"/>
</g>
<g>
	<path class="st1" d="M370.7,703.2L424,671c10.3,18.2,19.6,33.7,42.1,33.7c21.5,0,35.1-8.4,35.1-41.2V440.8h65.5v223.6
		c0,67.8-39.8,98.7-97.8,98.7C416.5,763.1,386.1,736,370.7,703.2z"/>
	<path class="st1" d="M602.2,696.2l53.3-30.9c14,22.9,32.3,39.8,64.6,39.8c27.1,0,44.4-13.6,44.4-32.3c0-22.5-17.8-30.4-47.7-43.5
		l-16.4-7c-47.2-20.1-78.6-45.4-78.6-98.7c0-49.1,37.4-86.5,95.9-86.5c41.6,0,71.6,14.5,93.1,52.4l-51,32.7
		c-11.2-20.1-23.4-28.1-42.1-28.1c-19.2,0-31.3,12.2-31.3,28.1c0,19.6,12.2,27.6,40.2,39.8l16.4,7c55.7,23.9,87,48.2,87,102.9
		c0,58.9-46.3,91.2-108.5,91.2C660.7,763.1,621.4,734.1,602.2,696.2z"/>
</g>
</svg>
