<?xml version="1.0" encoding="utf-8"?>
<!-- Generator: Adobe Illustrator 22.0.0, SVG Export Plug-In . SVG Version: 6.00 Build 0)  -->
<svg version="1.1" id="Capa_1" xmlns="http://www.w3.org/2000/svg" xmlns:xlink="http://www.w3.org/1999/xlink" x="0px" y="0px"
	 viewBox="0 0 56 56" style="enable-background:new 0 0 56 56;" xml:space="preserve">
<style type="text/css">
	.st0{fill:#F0DB4F;}
</style>
<g>
	<path class="st0" d="M28,0C12.6,0,0,12.6,0,28s12.6,28,28,28s28-12.6,28-28S43.4,0,28,0z M28,54C13.7,54,2,42.3,2,28S13.7,2,28,2
		s26,11.7,26,26S42.3,54,28,54z"/>
	<path class="st0" d="M15,17h26c0.6,0,1-0.4,1-1s-0.4-1-1-1H15c-0.6,0-1,0.4-1,1S14.4,17,15,17z"/>
	<path class="st0" d="M45,31H11c-0.6,0-1,0.4-1,1c0,0.6,0.4,1,1,1h34c0.6,0,1-0.4,1-1S45.6,31,45,31z"/>
	<path class="st0" d="M45,23H11c-0.6,0-1,0.4-1,1s0.4,1,1,1h34c0.6,0,1-0.4,1-1S45.6,23,45,23z"/>
	<path class="st0" d="M41,39H15c-0.6,0-1,0.4-1,1s0.4,1,1,1h26c0.6,0,1-0.4,1-1S41.6,39,41,39z"/>
</g>
</svg>
